<svg width="16" height="16" viewBox="0 0 16 16" fill="none" xmlns="http://www.w3.org/2000/svg">
<g clip-path="url(#clip0_1_4425)">
<rect width="16" height="16" rx="8" fill="#E2E6EE"/>
<path d="M6.52708 11.5563C5.68452 11.5563 4.92491 11.0487 4.60242 10.2703C4.27993 9.4919 4.45806 8.59588 5.05375 8L5.93792 7.11583L6.52708 7.705L5.64333 8.58875C5.32753 8.90456 5.20419 9.36486 5.31978 9.79626C5.43538 10.2277 5.77234 10.5646 6.20374 10.6802C6.63514 10.7958 7.09544 10.6725 7.41125 10.3567L8.295 9.47292L8.88417 10.0625L8.00042 10.9463C7.61045 11.3381 7.07994 11.5578 6.52708 11.5563ZM6.82167 9.7675L6.2325 9.17833L9.17875 6.23208L9.76792 6.82125L6.82208 9.76708L6.82167 9.7675ZM10.0629 8.88375L9.47334 8.29458L10.3571 7.41083C10.6772 7.09597 10.8038 6.63361 10.6889 6.19958C10.5739 5.76554 10.2349 5.42652 9.80092 5.31144C9.36691 5.19635 8.90452 5.32288 8.58958 5.64292L7.70542 6.52667L7.11625 5.9375L8.00042 5.05333C8.81504 4.24582 10.1292 4.2487 10.9402 5.05977C11.7513 5.87085 11.7542 7.18497 10.9467 7.99958L10.0629 8.88333V8.88375Z" fill="#79819A"/>
</g>
<defs>
<clipPath id="clip0_1_4425">
<rect width="16" height="16" rx="8" fill="white"/>
</clipPath>
</defs>
</svg>
