<svg width="16" height="16" viewBox="0 0 16 16" fill="none" xmlns="http://www.w3.org/2000/svg">
<g clip-path="url(#clip0_1_4433)">
<rect width="16" height="16" rx="8" fill="#E2E6EE"/>
<path d="M10.9156 11.3333C7.36078 11.3384 4.66287 8.60812 4.66667 5.08438C4.66667 4.85426 4.85322 4.66667 5.08334 4.66667H6.18307C6.38956 4.66667 6.56497 4.81839 6.59529 5.02264C6.66796 5.51217 6.81049 5.98874 7.01854 6.43779L7.06135 6.53021C7.12089 6.65871 7.08053 6.81139 6.96528 6.8937C6.62471 7.13691 6.49455 7.62648 6.75987 8.00848C7.09283 8.48785 7.51252 8.90746 7.99178 9.24026C8.37376 9.50551 8.86325 9.37537 9.10646 9.03485C9.18882 8.91954 9.34159 8.87917 9.47017 8.93873L9.56216 8.98134C10.0112 9.18937 10.4879 9.33191 10.9774 9.40456C11.1817 9.43488 11.3333 9.61028 11.3333 9.81678V10.9167C11.3333 11.1468 11.1463 11.3333 10.9162 11.3333L10.9156 11.3333Z" fill="#79819A"/>
</g>
<defs>
<clipPath id="clip0_1_4433">
<rect width="16" height="16" rx="8" fill="white"/>
</clipPath>
</defs>
</svg>
